# xmcd CD database file
#
# Track frame offsets:
#	150
#	22852
#	44290
#	71252
#	94627
#	113792
#	134970
#	161590
#	178617
#	204555
#	234542
#
# Disc length: 3448 seconds
#
# Revision: 7
# Processed by: cddbd v1.5.2PL0 Copyright (c) Steve Scherf et al.
# Submitted via: CDex 1.70beta3
#
DISCID=900d760b
DTITLE=中島みゆき - パラダイス・カフェ
DYEAR=1996
DGENRE=JPop
TTITLE0=旅人のうた <2nd Version>
TTITLE1=伝説
TTITLE2=永遠の嘘をついてくれ
TTITLE3=ALONE, PLEASE
TTITLE4=それは愛ではない
TTITLE5=なつかない猫
TTITLE6=SINGLES BAR
TTITLE7=蒼い時代
TTITLE8=たかが愛
TTITLE9=阿檀の木の下で
TTITLE10=パラダイス・カフェ
EXTD=YEAR: 1996
EXTT0=
EXTT1=
EXTT2=
EXTT3=
EXTT4=
EXTT5=
EXTT6=
EXTT7=
EXTT8=
EXTT9=
EXTT10=
PLAYORDER=
